<svg width="20" height="19" viewBox="0 0 20 19" fill="none" xmlns="http://www.w3.org/2000/svg">
<path d="M19.6901 7.76997L19.1001 5.95997H12.8801L11.0001 0.0299683H9.10006L7.17006 5.95997H0.900059L0.310059 7.76997L5.31006 11.43L3.38006 17.35L5.00006 18.47L10.0001 14.81L15.0001 18.47L16.5401 17.35L14.6101 11.43L19.6901 7.76997ZM10.5901 12.77H9.41006L6.27006 15.05L7.47006 11.36L7.11006 10.25L4.00006 7.95997H7.88006L8.83006 7.26997L10.0301 3.57997L11.2301 7.26997L12.1801 7.95997H16.0001L12.8601 10.24L12.5001 11.35L13.7001 15.04L10.5901 12.77Z" fill="white"/>
</svg>
